<?xml version="1.0" standalone="no"?>
<!DOCTYPE svg PUBLIC "-//W3C//DTD SVG 20010904//EN"
 "http://www.w3.org/TR/2001/REC-SVG-20010904/DTD/svg10.dtd">
<svg version="1.0" xmlns="http://www.w3.org/2000/svg"
 width="500.000000pt" height="500.000000pt" viewBox="0 0 500.000000 500.000000"
 preserveAspectRatio="xMidYMid meet">

<g transform="translate(0.000000,500.000000) scale(0.100000,-0.100000)"
fill="#000000" stroke="none">
<path d="M710 3065 l0 -1245 265 0 265 0 0 25 0 25 -235 0 -235 0 -1 983 c-1
540 -2 1077 -2 1192 l-2 210 1420 0 1420 0 7 -185 c3 -102 16 -284 27 -404 29
-305 29 -314 -13 -369 -70 -92 -71 -95 -69 -278 1 -170 19 -393 33 -418 4 -7
9 78 12 191 4 194 16 272 32 221 4 -11 11 -101 16 -199 5 -99 10 -190 11 -204
4 -62 17 98 18 221 1 139 7 199 21 199 15 0 20 -47 27 -237 3 -106 9 -193 13
-193 4 0 10 90 13 200 6 194 15 256 31 214 4 -11 11 -108 16 -218 5 -109 11
-200 13 -202 12 -12 37 295 36 451 0 137 -9 170 -65 246 -37 50 -39 58 -42
135 -5 112 31 646 54 802 l5 32 145 0 c107 0 146 -3 148 -12 12 -42 49 -525
54 -694 l5 -201 -53 -44 c-81 -68 -103 -115 -108 -224 -12 -264 105 -530 220
-502 60 15 129 118 164 244 22 80 30 290 13 350 -12 45 -47 87 -129 156 l-33
27 7 183 c4 100 14 263 22 362 9 99 19 218 22 265 l7 85 80 0 80 0 0 -1190 0
-1190 -672 -3 -673 -2 0 -25 0 -25 700 0 700 0 0 1245 0 1245 -1895 0 -1895 0
0 -1245z"/>
<path d="M970 3440 c0 -193 1 -200 20 -200 19 0 20 7 20 100 l0 99 73 4 72 3
-72 2 -73 2 0 90 0 89 78 4 c76 3 76 3 -20 5 l-98 2 0 -200z"/>
<path d="M1290 3440 l0 -200 103 2 102 2 -82 3 -83 4 0 194 c0 188 -1 195 -20
195 -19 0 -20 -7 -20 -200z"/>
<path d="M1778 3634 c-3 -5 -43 -92 -88 -194 -45 -102 -84 -188 -87 -192 -2
-5 -1 -8 4 -8 4 0 23 36 42 80 l34 81 80 -3 80 -3 32 -75 c27 -64 36 -75 58
-78 26 -3 26 -2 -53 180 -44 101 -84 192 -88 202 -5 11 -11 16 -14 10z m51
-211 c1 -9 -19 -13 -69 -13 -79 0 -77 -10 -24 105 l27 60 33 -70 c18 -38 33
-76 33 -82z"/>
<path d="M2073 3628 c34 -89 163 -388 168 -388 8 0 181 391 175 397 -4 4 -19
-27 -102 -214 -27 -62 -51 -113 -54 -113 -3 0 -37 73 -75 163 -60 139 -74 162
-94 165 -17 3 -22 0 -18 -10z"/>
<path d="M2644 3621 c-54 -25 -92 -75 -104 -139 -26 -138 52 -238 195 -250
158 -12 266 115 226 265 -21 76 -102 144 -171 142 -21 -1 -19 -3 10 -11 45
-12 96 -62 111 -106 6 -18 9 -67 7 -107 -4 -82 -20 -113 -79 -153 -29 -20 -44
-23 -96 -20 -75 5 -109 26 -140 88 -42 81 -24 211 35 263 11 11 38 25 59 33
31 11 33 13 13 13 -14 0 -44 -8 -66 -18z"/>
<path d="M3097 3633 c-4 -3 -7 -93 -7 -200 l0 -193 25 0 25 0 0 195 0 195 34
0 c46 0 94 -18 106 -40 6 -10 10 -37 10 -60 0 -52 -30 -84 -88 -94 l-42 -6 20
-23 c12 -12 46 -55 77 -94 47 -62 60 -73 86 -73 l29 0 -38 48 c-21 26 -53 65
-71 88 -18 23 -33 44 -33 47 0 3 16 11 35 17 100 33 98 161 -3 190 -41 11
-155 14 -165 3z"/>
<path d="M1500 2740 c0 -193 1 -200 20 -200 19 0 20 7 20 100 l0 100 73 2 72
2 -70 5 -70 6 0 85 0 85 80 6 80 5 -102 2 -103 2 0 -200z"/>
<path d="M1820 2740 l0 -200 103 2 102 2 -82 3 -83 4 0 94 0 94 73 4 72 3 -72
2 -73 2 0 90 0 89 83 4 82 3 -102 2 -103 2 0 -200z"/>
<path d="M2147 2933 c-4 -3 -7 -93 -7 -200 l0 -193 103 2 c95 2 97 2 25 5
l-78 4 0 94 0 94 68 4 67 3 -67 2 -68 2 0 90 0 89 78 4 77 3 -96 2 c-53 1 -99
-1 -102 -5z"/>
<path d="M2470 2740 l0 -200 88 0 c154 0 231 40 262 136 17 50 7 150 -17 182
-48 64 -99 81 -240 82 l-93 0 0 -200z m195 179 c76 -21 117 -79 118 -168 1
-137 -65 -201 -208 -201 l-65 0 0 190 0 190 58 0 c31 0 75 -5 97 -11z"/>
<path d="M1035 1761 c-264 -94 -450 -315 -380 -450 13 -26 33 -41 55 -41 5 0
-5 13 -21 29 -67 67 -17 203 115 311 133 109 339 189 375 146 15 -18 0 -58
-96 -246 -81 -157 -96 -201 -81 -239 6 -16 16 -21 45 -21 68 0 165 63 326 212
l89 81 -47 -94 c-90 -179 -154 -279 -179 -279 -24 0 -134 -59 -183 -98 -60
-48 -108 -121 -98 -152 8 -24 62 -28 103 -6 36 19 130 116 189 196 29 38 58
67 73 71 24 6 24 6 3 10 -21 4 -21 6 14 64 20 33 65 115 99 182 95 183 86 197
-45 70 -159 -153 -302 -254 -348 -245 -14 3 -18 13 -17 46 1 32 22 84 92 223
91 179 103 214 80 237 -17 17 -105 13 -163 -7z m209 -613 c-23 -39 -98 -129
-142 -171 -61 -56 -98 -75 -114 -59 -33 33 61 142 178 204 74 40 89 45 78 26z"/>
<path d="M2952 1654 c-95 -25 -197 -73 -303 -143 -128 -84 -218 -165 -250
-225 -28 -53 -22 -70 32 -99 29 -16 51 -18 159 -14 69 3 159 13 200 23 95 22
77 30 -22 10 -108 -22 -246 -30 -294 -17 -84 23 -83 62 4 154 148 156 439 315
558 305 54 -4 62 -25 35 -89 -13 -30 -25 -60 -28 -66 -3 -7 0 -13 6 -13 18 0
71 121 65 146 -11 43 -70 53 -162 28z"/>
<path d="M3271 1381 c-24 -60 -41 -116 -38 -125 9 -24 42 -19 74 9 l28 26 -37
-21 c-22 -13 -39 -17 -43 -11 -3 6 12 57 35 114 42 109 45 117 33 117 -5 0
-28 -49 -52 -109z"/>
<path d="M3457 1364 c-4 -4 -7 -14 -7 -23 0 -11 3 -12 11 -4 6 6 10 16 7 23
-2 6 -7 8 -11 4z"/>
<path d="M1717 1303 c-33 -64 -14 -93 34 -54 21 17 25 17 35 3 10 -14 15 -13
48 7 20 13 35 26 32 28 -3 3 -17 -2 -30 -11 -34 -22 -36 -21 -29 14 7 39 -3
38 -49 -7 -37 -36 -49 -32 -27 8 6 11 8 25 6 32 -2 7 -11 -2 -20 -20z"/>
<path d="M1951 1289 c-31 -54 -26 -58 17 -16 26 26 44 36 55 31 11 -4 17 -1
17 9 0 11 -10 15 -34 14 -29 -1 -38 -7 -55 -38z"/>
<path d="M2992 1305 c-15 -32 -16 -75 -2 -75 6 0 22 7 35 16 20 13 28 14 40 4
12 -10 21 -8 49 11 39 27 40 41 2 15 -35 -22 -39 -20 -31 14 9 39 -1 38 -48
-7 -38 -37 -39 -37 -33 -11 3 14 9 33 12 42 10 27 -12 18 -24 -9z"/>
<path d="M3828 1302 c-22 -20 -29 -34 -25 -46 5 -13 12 -16 25 -10 9 4 28 7
42 6 40 -2 67 7 74 23 5 14 4 14 -16 0 -30 -20 -38 -19 -38 5 0 26 -8 25 -37
-2 -13 -12 -25 -19 -28 -16 -9 9 36 48 56 48 11 0 17 5 14 10 -11 17 -34 11
-67 -18z"/>
<path d="M4031 1289 c-31 -54 -26 -58 17 -16 26 26 44 36 55 31 11 -4 17 -1
17 9 0 11 -10 15 -34 14 -29 -1 -38 -7 -55 -38z"/>
<path d="M4228 1306 c-16 -37 -4 -59 30 -52 15 3 -15 -16 -67 -43 -52 -27
-103 -59 -115 -71 l-21 -21 24 -20 c17 -14 39 -19 78 -19 67 0 91 21 122 106
16 44 30 64 53 77 17 10 28 20 25 24 -4 3 -13 0 -22 -7 -21 -18 -28 -8 -16 24
14 35 -2 33 -29 -4 -12 -16 -28 -30 -36 -30 -17 0 -17 1 -4 34 13 34 -6 35
-22 2z m36 -98 c-29 -97 -56 -123 -120 -115 -92 10 -84 33 37 97 87 46 93 47
83 18z"/>
<path d="M1526 1304 c-36 -35 -2 -79 43 -55 22 12 36 45 26 61 -9 15 -52 12
-69 -6z m54 -7 c0 -7 -5 -18 -12 -25 -7 -7 -18 -12 -25 -12 -19 0 -16 27 5 39
23 14 32 13 32 -2z"/>
<path d="M3420 1291 c-28 -53 9 -69 57 -25 l28 26 -32 -18 c-37 -21 -50 -15
-33 15 7 13 7 21 1 21 -6 0 -15 -9 -21 -19z"/>
<path d="M3584 1282 c-24 -37 -11 -47 23 -18 37 31 46 33 38 6 -5 -16 -2 -20
18 -20 14 0 35 9 48 20 l24 21 -34 -16 -34 -17 7 26 c6 24 4 25 -34 23 -30 -1
-44 -7 -56 -25z"/>
<path d="M2180 1254 c-144 -40 -339 -155 -461 -272 -110 -105 -127 -160 -59
-195 30 -16 52 -18 165 -13 80 3 159 12 205 24 87 23 61 29 -32 7 -99 -22
-255 -29 -303 -13 -34 11 -40 18 -43 44 -11 118 416 407 603 409 58 0 60 -1
63 -28 2 -15 -8 -52 -22 -82 -34 -74 -9 -75 27 -1 30 62 34 98 12 116 -23 19
-94 21 -155 4z"/>
<path d="M3155 930 c-4 -6 -5 -22 -3 -35 2 -18 -5 -32 -27 -49 -24 -19 -27
-27 -18 -37 9 -9 21 -9 45 -3 25 7 34 17 38 38 3 15 16 34 30 42 l25 15 -25
-7 c-42 -11 -44 -10 -48 15 -3 18 0 22 12 18 9 -4 16 -2 16 3 0 13 -37 13 -45
0z m13 -92 c-3 -7 -15 -14 -29 -16 -23 -2 -23 -2 -5 13 24 18 39 20 34 3z"/>
<path d="M3327 926 c-3 -8 -3 -23 0 -35 3 -14 -3 -28 -23 -45 -38 -32 -22 -54
28 -40 26 8 33 15 33 34 0 17 10 31 30 43 27 16 27 17 5 11 -14 -4 -30 -9 -36
-11 -13 -5 -27 24 -19 37 3 5 13 6 22 3 11 -4 14 -3 9 5 -10 17 -43 15 -49 -2z
m21 -88 c-3 -7 -15 -15 -28 -16 -21 -3 -22 -2 -11 12 16 19 44 21 39 4z"/>
<path d="M2412 890 c-11 -24 -19 -46 -17 -49 3 -2 21 9 41 24 34 26 36 26 29
6 -8 -26 5 -27 38 -1 14 11 28 20 31 20 3 0 6 -9 6 -20 0 -27 32 -26 56 1 19
22 19 22 -3 10 -31 -16 -34 -14 -27 14 7 29 -10 33 -40 10 -15 -11 -22 -12
-27 -3 -6 9 -14 9 -33 0 -22 -10 -25 -9 -29 11 -3 18 -7 15 -25 -23z"/>
<path d="M2951 904 c-38 -31 -43 -70 -8 -59 12 4 38 7 58 6 24 -1 41 5 54 19
10 11 13 20 8 20 -6 0 -16 -7 -23 -15 -17 -21 -30 -19 -30 5 0 26 -8 25 -37
-2 -28 -26 -38 -20 -17 10 9 13 26 22 40 22 14 0 22 4 19 10 -10 17 -32 11
-64 -16z"/>
<path d="M2230 900 c-23 -23 -23 -38 3 -54 21 -13 72 22 72 50 0 28 -48 31
-75 4z m50 -21 c-6 -10 -20 -19 -31 -19 -16 0 -18 3 -9 19 10 20 30 31 43 24
4 -2 2 -13 -3 -24z"/>
<path d="M2661 804 c-28 -64 -50 -118 -47 -121 2 -2 21 28 43 68 33 62 43 73
77 85 21 7 42 18 47 25 4 7 20 18 36 25 21 10 23 13 7 11 -11 -1 -28 4 -37 11
-12 10 -21 11 -36 2 -14 -7 -21 -7 -21 0 0 32 -23 -3 -69 -106z m109 87 c0
-11 -50 -44 -57 -38 -5 6 37 47 49 47 4 0 8 -4 8 -9z"/>
</g>
</svg>
